:SAMPLES-PER-SECOND 30
:FULLY-SPECIFIED
:DEGREES
498
root  16.275 29.9914 -0.587113 27.0089 -82.0738 -38.9185
RightUpLeg  -26.3342 -11.165 -26.9484
RightLeg  64.8889 0.619557 0.813499
RightFoot  -7.82739 -0.956541 28.4875
RightToes  -5.28226e-011 1.30204e-014 -6.03759e-014
Spine  32.2411 -0.0565462 -16.4557
Spine1  3.50265 -8.71305 17.2217
HEad  -25.0729 8.25252 1.21372
LeftShoulder1  1.67765 -5.19682 -12.1865
LeftArm  -13.9801 10.9274 -29.1598
LeftForeArm  -32.9006 -8.99547 -9.82912
LeftHand  0.78716 7.76652 36.5964
RightShoulder  1.94377 2.968 23.9892
RightArm  -26.3707 -37.175 46.0415
RightForeArm  -11.3603 69.6141 35.3931
RightHand  -1.61946 -0.688757 -38.827
LeftUpLeg  -23.5823 3.58426 36.538
LeftLeg  67.1535 -1.17361 -2.29523
LeftFoot  -24.6218 -3.57682 -31.2515
LeftToes  -2.75829e-010 5.07641e-011 -5.51782e-011
499
root  15.9666 29.7312 -1.14618 42.2642 -85.0085 -54.4749
RightUpLeg  -26.5739 -11.1842 -27.3182
RightLeg  65.426 2.01445 4.19932
RightFoot  -13.3967 0.430496 28.6857
RightToes  -5.28226e-011 1.30204e-014 -6.03759e-014
Spine  31.2671 0.462656 -6.66802
Spine1  3.54531 -2.67056 5.61101
HEad  -26.1244 -1.99693 2.85487
LeftShoulder1  1.79425 -4.63949 -15.1945
LeftArm  -9.32592 5.1903 -27.3247
LeftForeArm  -41.3571 -21.6734 -7.57483
LeftHand  0.638042 7.27561 37.1215
RightShoulder  1.97525 3.17103 23.4448
RightArm  -24.8904 -39.3748 45.3102
RightForeArm  -23.109 62.3923 24.4741
RightHand  -1.69787 -0.539361 -39.3737
LeftUpLeg  -20.671 3.4177 36.855
LeftLeg  66.8187 -0.457561 -0.433819
LeftFoot  -24.2289 -3.62917 -32.5672
LeftToes  -2.75829e-010 5.07641e-011 -5.51782e-011
500
root  15.5545 30.0485 -1.83279 105.893 -87.5375 -118.019
RightUpLeg  -28.3228 -8.45898 -26.3575
RightLeg  65.4824 2.48272 5.3291
RightFoot  -15.5573 0.953051 28.2391
RightToes  -5.28226e-011 1.30204e-014 -6.03759e-014
Spine  30.8337 1.5532 -0.677228
Spine1  1.79127 2.02008 -3.45364
HEad  -24.3916 -7.91449 3.05513
LeftShoulder1  1.73209 -4.22089 -15.6286
LeftArm  -11.0748 7.0741 -29.2586
LeftForeArm  -36.7208 -29.052 -7.76971
LeftHand  0.452103 6.77958 35.7155
RightShoulder  1.73738 2.8546 21.0335
RightArm  -25.5661 -36.1917 45.3945
RightForeArm  -29.3252 55.1414 18.2989
RightHand  -1.85816 -0.0846087 -39.3884
LeftUpLeg  -14.9759 4.91657 36.7342
LeftLeg  62.93 0.549217 1.80778
LeftFoot  -22.5564 -3.29375 -33.9436
LeftToes  -2.75829e-010 5.07641e-011 -5.51782e-011
501
root  15.0599 30.9688 -2.54042 168.17 -86.3736 -179.512
RightUpLeg  -28.4701 -6.64757 -25.647
RightLeg  63.5555 2.38827 4.67355
RightFoot  -14.9923 0.776357 27.0494
RightToes  -5.28226e-011 1.30204e-014 -6.03759e-014
Spine  29.6393 1.88626 0.158897
Spine1  -0.423498 2.93984 -5.63354
HEad  -20.6261 -9.53226 0.538712
LeftShoulder1  1.48736 -3.20619 -15.3634
LeftArm  -12.3035 14.9824 -32.8479
LeftForeArm  -32.2068 -32.1286 -8.60116
LeftHand  0.344124 6.47896 34.6953
RightShoulder  1.54278 2.81607 17.916
RightArm  -29.2402 -29.9362 46.5382
RightForeArm  -30.8298 50.7167 15.6904
RightHand  -1.99618 0.411402 -38.7588
LeftUpLeg  -10.0411 5.38552 35.0428
LeftLeg  56.2003 2.48554 4.48106
LeftFoot  -18.9707 -2.40658 -36.9513
LeftToes  -2.75829e-010 5.07641e-011 -5.51782e-011
502
root  14.5959 32.3849 -3.15563 -155.695 -87.3116 145.455
RightUpLeg  -25.014 -7.22501 -25.3744
RightLeg  58.1557 1.80967 2.72505
RightFoot  -13.2892 0.364793 26.4185
RightToes  -5.28226e-011 1.30204e-014 -6.03759e-014
Spine  27.7712 0.897907 -0.198223
Spine1  -2.03302 1.71604 -4.48446
HEad  -16.4773 -10.9206 -1.93177
LeftShoulder1  1.31743 -2.4516 -15.2962
LeftArm  -9.83023 22.6365 -36.0032
LeftForeArm  -34.4445 -32.0906 -8.67658
LeftHand  0.475383 6.87102 35.3082
RightShoulder  1.46671 3.19366 15.1455
RightArm  -32.1763 -25.3418 48.7234
RightForeArm  -30.0789 47.9816 14.2823
RightHand  -1.92088 0.634533 -36.0272
LeftUpLeg  -8.31269 4.24889 32.4935
LeftLeg  49.1452 6.09001 7.90364
LeftFoot  -10.1634 0.47936 -39.6045
LeftToes  -2.75829e-010 5.07641e-011 -5.51782e-011
503
root  14.2466 34.1249 -3.70703 -69.3308 -87.9836 60.4384
RightUpLeg  -19.3879 -8.81014 -24.8046
RightLeg  49.7027 0.399316 0.183958
RightFoot  -10.3348 -0.320084 27.2813
RightToes  -5.28226e-011 1.30204e-014 -6.03759e-014
Spine  26.34 -0.10138 1.58585
Spine1  -3.7305 1.27837 -5.42507
HEad  -13.5183 -16.1311 -1.36805
LeftShoulder1  1.15138 -1.99013 -14.0045
LeftArm  -7.66484 26.0551 -40.3061
LeftForeArm  -38.0152 -30.6828 -8.40857
LeftHand  0.704093 7.53836 36.1975
RightShoulder  1.44627 3.53545 13.6409
RightArm  -33.887 -25.6274 50.2263
RightForeArm  -29.759 44.5117 12.7097
RightHand  -1.59464 0.515718 -30.7996
LeftUpLeg  -10.0149 3.88184 30.6321
LeftLeg  43.5032 10.0271 10.4648
LeftFoot  5.29434 5.2786 -36.0842
LeftToes  -2.75829e-010 5.07641e-011 -5.51782e-011
504
root  14.024 35.9562 -4.16534 -25.959 -84.923 18.8184
RightUpLeg  -14.5666 -10.2647 -23.8635
RightLeg  40.4283 -1.70668 -1.84951
RightFoot  -4.3134 -1.80986 28.4549
RightToes  -5.28226e-011 1.30204e-014 -6.03759e-014
Spine  25.449 0.268424 5.51537
Spine1  -5.83994 2.82578 -9.32554
HEad  -12.9431 -25.4522 1.78643
LeftShoulder1  0.959569 -1.36479 -12.6575
LeftArm  -10.1486 26.0468 -45.8085
LeftForeArm  -37.0735 -30.5677 -8.34758
LeftHand  0.762034 7.67132 36.8489
RightShoulder  1.48651 3.65574 13.8871
RightArm  -35.7031 -29.7446 49.3459
RightForeArm  -30.6699 40.0444 11.0395
RightHand  -1.28579 0.489782 -25.2125
LeftUpLeg  -13.8821 6.14911 29.1786
LeftLeg  39.312 10.3468 9.3695
LeftFoot  20.2324 7.85069 -27.575
LeftToes  -2.75829e-010 5.07641e-011 -5.51782e-011
505
root  13.9143 37.6685 -4.49383 -22.6123 -82.6326 17.2267
RightUpLeg  -11.6306 -11.9489 -23.341
RightLeg  32.1925 -3.37584 -2.55546
RightFoot  4.93096 -4.1479 28.7129
RightToes  -5.28226e-011 1.30204e-014 -6.03759e-014
Spine  24.8721 2.1847 9.35341
Spine1  -7.077 5.76495 -13.7137
HEad  -14.8028 -35.7906 5.1416
LeftShoulder1  0.834938 -0.545354 -13.6892
LeftArm  -14.6996 24.8893 -50.1852
LeftForeArm  -33.8163 -33.0286 -8.92392
LeftHand  0.599068 7.16351 37.0409
RightShoulder  1.54192 3.63187 14.8208
RightArm  -36.0997 -33.3134 45.7696
RightForeArm  -33.1954 33.1399 8.95521
RightHand  -1.08591 0.492617 -21.3917
LeftUpLeg  -18.2058 9.85477 26.9107
LeftLeg  37.5864 5.8553 5.14797
LeftFoot  24.3466 7.66961 -23.9566
LeftToes  -2.75829e-010 5.07641e-011 -5.51782e-011
506
root  13.879 39.0627 -4.75986 -24.1396 -81.4117 19.7305
RightUpLeg  -9.53499 -13.9375 -23.5829
RightLeg  25.4871 -4.23564 -2.42223
RightFoot  14.6758 -6.73915 29.0106
RightToes  -5.28226e-011 1.30204e-014 -6.03759e-014
Spine  24.9615 4.81413 11.9354
Spine1  -7.04868 9.18965 -16.6558
HEad  -17.0263 -44.3804 7.08073
LeftShoulder1  0.672797 0.518377 -15.7486
LeftArm  -16.7899 23.9642 -53.5412
LeftForeArm  -31.9665 -36.0756 -9.75927
LeftHand  0.389575 6.56626 36.1564
RightShoulder  1.56265 3.63413 15.1327
RightArm  -33.2026 -34.1607 40.5184
RightForeArm  -36.7854 23.3423 6.62077
RightHand  -0.997199 0.483374 -19.6997
LeftUpLeg  -21.6659 12.7286 24.3137
LeftLeg  39.0324 0.331942 0.646696
LeftFoot  18.7584 7.44242 -27.7604
LeftToes  -2.75829e-010 5.07641e-011 -5.51782e-011
507
root  13.8734 40.0051 -4.99429 -26.6249 -80.7434 22.2654
RightUpLeg  -7.43012 -15.5534 -24.0135
RightLeg  20.3861 -5.44779 -2.44569
RightFoot  22.0749 -9.02348 30.0019
RightToes  -5.28226e-011 1.30204e-014 -6.03759e-014
Spine  25.9998 7.03 14.2675
Spine1  -7.13459 12.1901 -18.2842
HEad  -17.4121 -50.7195 7.06553
LeftShoulder1  0.337027 2.01923 -15.6749
LeftArm  -16.6628 24.1327 -57.9146
LeftForeArm  -30.6479 -38.4598 -10.481
LeftHand  0.272152 6.23957 34.8828
RightShoulder  1.61108 3.80404 15.298
RightArm  -29.1524 -34.2927 35.4073
RightForeArm  -40.5752 14.4582 5.13743
RightHand  -0.984189 0.467851 -19.4892
LeftUpLeg  -23.7335 14.1521 22.5644
LeftLeg  41.4915 -2.59947 -2.05323
LeftFoot  14.1201 7.56805 -32.9508
LeftToes  -2.75829e-010 5.07641e-011 -5.51782e-011
